<svg width="64" height="64" viewBox="0 0 64 64" fill="none" xmlns="http://www.w3.org/2000/svg">
<path d="M53.1999 0L34.8999 6.6L20.4999 0L12.3999 19.6L12.6999 47.3L57.0999 47.7L63.9999 12.5L53.1999 0Z" fill="url(#paint0_linear)"/>
<path d="M12 41.5L59.5 14.5L53.2 0L34.9 6.6L20.5 0L12 19V41.5Z" fill="url(#paint1_linear)"/>
<path d="M12 41.5L59.5 14.5L53.2 0L34.9 6.6L12 41.5Z" fill="url(#paint2_linear)"/>
<path d="M63.7999 12.5L53.1999 0L34.8999 6.6L63.7999 12.5Z" fill="url(#paint3_linear)"/>
<path d="M59.5001 14.5L57.1001 47.7L64.0001 12.5L59.5001 14.5Z" fill="url(#paint4_linear)"/>
<path d="M53.2 0L59.5 14.5L64 12.5L53.2 0Z" fill="url(#paint5_linear)"/>
<path d="M48.6999 20.7L23.3999 5.59998L51.1999 40.3L48.6999 20.7Z" fill="url(#paint6_linear)"/>
<path d="M50.6 59.1L46.8 52L51.2 40.3L23.4 5.59998L0 11.3V44.9L13.5 64L50.6 59.1Z" fill="url(#paint7_linear)"/>
<path d="M18.9 47.4L0 11.3V44.9L13.5 64L18.9 47.4Z" fill="url(#paint8_linear)"/>
<path d="M18.9 47.4L21.9 39.3L0 44.9L13.5 64L18.9 47.4Z" fill="url(#paint9_linear)"/>
<path d="M18.9 47.4L0 11.3V44.9L13.5 64L18.9 47.4Z" fill="url(#paint10_linear)"/>
<path d="M18.9 47.5L13.5 64L50.6 59.1L18.9 47.5Z" fill="url(#paint11_linear)"/>
<path d="M18.8999 47.5L46.7999 52L50.5999 59.1L18.8999 47.5Z" fill="url(#paint12_linear)"/>
<path d="M13.5 64L46.8 52L50.6 59.1L13.5 64Z" fill="url(#paint13_linear)"/>
<path d="M50.5999 59.1L46.7999 52L38.8999 54.9L50.5999 59.1Z" fill="url(#paint14_linear)"/>
<path d="M23.4 5.59998L9.5 29.4L18.9 47.4L48.5 47.6L51.2 40.3L23.4 5.59998Z" fill="url(#paint15_linear)"/>
<path d="M18.8999 47.5L46.7999 52L51.1999 40.3L18.8999 47.5Z" fill="url(#paint16_linear)"/>
<path d="M0 11.3V44.9L0.2 45.1V45.2L9.5 29.5L0 11.3Z" fill="url(#paint17_linear)"/>
<path d="M23.4 5.59998L0 11.3L9.5 29.4L23.4 5.59998Z" fill="url(#paint18_linear)"/>
<path d="M17.3 7.09998L8.19995 27L9.49995 29.4L23.4 5.59998L17.3 7.09998Z" fill="url(#paint19_linear)"/>
<path d="M12 25.3V34.1L15 39.9L39.5 25.6L23.4 5.59998L12 25.3Z" fill="url(#paint20_linear)"/>
<path d="M52 12H12V52H52V12Z" fill="url(#paint21_linear)"/>
<g opacity="0.3">
<path opacity="0.3" d="M52 12H15.5L12 19.6V52H52V12Z" fill="url(#paint22_linear)"/>
<path opacity="0.3" d="M12 52H46.8L51.2 40.3L28.6 12H12V52Z" fill="url(#paint23_linear)"/>
<path opacity="0.3" d="M12 19V41.5L52 18.8V12H15.1L12 19Z" fill="url(#paint24_linear)"/>
<path opacity="0.3" d="M52 12H15.5L12 19.6V52H52V12Z" fill="url(#paint25_linear)"/>
<path opacity="0.3" d="M46.7 52L41.7 42.8L19.1 47L17.5 52H46.7Z" fill="url(#paint26_linear)"/>
<path opacity="0.3" d="M51.2 40.3L48.7 20.7L34.1 12H28.5L51.2 40.3Z" fill="url(#paint27_linear)"/>
<path opacity="0.3" d="M19.7 12H12V25.1L19.7 12Z" fill="url(#paint28_linear)"/>
<path opacity="0.3" d="M12 18.8V25.1L12.8 23.8L19.7 12H15.1L12 18.8Z" fill="url(#paint29_linear)"/>
</g>
<path d="M32 44.45H17V46.95H32V44.45Z" fill="white"/>
<path d="M31.8 17H35.4L39.3 23.3L43.3 17H46.8V32H43.6V22.2L39.3 28.6H39.2001L35.1 22.3V32H31.8V17Z" fill="white"/>
<path d="M17 17H23.9C25.8 17 27.3 17.5 28.3 18.5C29.2 19.4 29.6 20.5 29.6 21.9C29.6 23.1 29.3 24.1 28.7 24.9C28.1 25.7 27.3 26.2 26.4 26.6L30 32H26.1L23 27.4H20.3V32H17V17ZM23.6 24.3C24.4 24.3 25 24.1 25.5 23.7C25.9 23.3 26.2 22.8 26.2 22.2C26.2 21.5 26 20.9 25.5 20.6C25 20.1 24.4 20 23.6 20H20.3V24.3H23.6Z" fill="white"/>
<defs>
<linearGradient id="paint0_linear" x1="41.0303" y1="37.0169" x2="32.9432" y2="15.7883" gradientUnits="userSpaceOnUse">
<stop  offset="0" stop-color="#FE2857"/>
<stop offset="0.0562257" stop-color="#FE3052"/>
<stop offset="0.3252" stop-color="#FD533B"/>
<stop offset="0.5796" stop-color="#FC6C2A"/>
<stop offset="0.8114" stop-color="#FC7B20"/>
<stop offset="1" stop-color="#FC801D"/>
</linearGradient>
<linearGradient id="paint1_linear" x1="35.7293" y1="27.3016" x2="35.2946" y2="3.1299" gradientUnits="userSpaceOnUse">
<stop offset="0.3737" stop-color="#FEB51A"/>
<stop offset="0.4306" stop-color="#FEAD1A"/>
<stop offset="0.6448" stop-color="#FD941C"/>
<stop offset="0.8406" stop-color="#FC851D"/>
<stop offset="1" stop-color="#FC801D"/>
</linearGradient>
<linearGradient id="paint2_linear" x1="54.267" y1="41.0356" x2="24.1814" y2="12.8786" gradientUnits="userSpaceOnUse">
<stop offset="0.3737" stop-color="#FEB51A"/>
<stop offset="0.417" stop-color="#FEAD1A"/>
<stop offset="0.5802" stop-color="#FD941C"/>
<stop offset="0.7294" stop-color="#FC851D"/>
<stop offset="0.8508" stop-color="#FC801D"/>
<stop offset="0.9836" stop-color="#F26522"/>
</linearGradient>
<linearGradient id="paint3_linear" x1="44.4436" y1="0.1671" x2="49.7401" y2="10.2873" gradientUnits="userSpaceOnUse">
<stop offset="0.0238963" stop-color="#FDB60D"/>
<stop offset="1" stop-color="#FF9600" stop-opacity="0"/>
</linearGradient>
<linearGradient id="paint4_linear" x1="61.7837" y1="46.8082" x2="59.3408" y2="13.7654" gradientUnits="userSpaceOnUse">
<stop offset="0.0133474" stop-color="#EE2A7B"/>
<stop offset="0.7157" stop-color="#FE2857"/>
<stop offset="0.9859" stop-color="#FC801D"/>
</linearGradient>
<linearGradient id="paint5_linear" x1="69.3267" y1="23.4814" x2="52.6125" y2="1.4957" gradientUnits="userSpaceOnUse">
<stop  offset="0" stop-color="#FE2857"/>
<stop offset="0.1736" stop-color="#FE2C54"/>
<stop offset="0.1983" stop-color="#FE3051"/>
<stop offset="0.4268" stop-color="#FD533B"/>
<stop offset="0.6429" stop-color="#FC6C2A"/>
<stop offset="0.8398" stop-color="#FC7B20"/>
<stop offset="1" stop-color="#FC801D"/>
</linearGradient>
<linearGradient id="paint6_linear" x1="26.8662" y1="4.28428" x2="52.1947" y2="33.0842" gradientUnits="userSpaceOnUse">
<stop  offset="0" stop-color="#6B57FF"/>
<stop offset="1" stop-color="#FE2857"/>
</linearGradient>
<linearGradient id="paint7_linear" x1="-0.2813" y1="10.6921" x2="40.8561" y2="62.9854" gradientUnits="userSpaceOnUse">
<stop offset="0.0417113" stop-color="#7D11EF"/>
<stop offset="0.1162" stop-color="#A019CB"/>
<stop offset="0.2019" stop-color="#C220A8"/>
<stop offset="0.283" stop-color="#DA268F"/>
<stop offset="0.3569" stop-color="#E92980"/>
<stop offset="0.417" stop-color="#EE2A7B"/>
<stop offset="1" stop-color="#F26522"/>
</linearGradient>
<linearGradient id="paint8_linear" x1="-8.9325" y1="17.737" x2="20.7889" y2="55.5184" gradientUnits="userSpaceOnUse">
<stop offset="0.00149909" stop-color="#6B57FF"/>
<stop offset="0.2483" stop-color="#FE2857"/>
<stop offset="0.6853" stop-color="#FE2857"/>
</linearGradient>
<linearGradient id="paint9_linear" x1="11.186" y1="31.9356" x2="10.5185" y2="59.6358" gradientUnits="userSpaceOnUse">
<stop offset="0.00149909" stop-color="#FDB60D"/>
<stop offset="0.725" stop-color="#FE2857" stop-opacity="0"/>
</linearGradient>
<linearGradient id="paint10_linear" x1="16.3299" y1="32.9227" x2="6.9663" y2="37.5572" gradientUnits="userSpaceOnUse">
<stop offset="0.0238963" stop-color="#FF7100"/>
<stop offset="1" stop-color="#FF9600" stop-opacity="0"/>
</linearGradient>
<linearGradient id="paint11_linear" x1="24.3366" y1="37.8693" x2="33.8655" y2="67.2501" gradientUnits="userSpaceOnUse">
<stop offset="0.3361" stop-color="#FE2857"/>
<stop offset="0.3527" stop-color="#FE3052"/>
<stop offset="0.4321" stop-color="#FD533B"/>
<stop offset="0.5072" stop-color="#FC6C2A"/>
<stop offset="0.5757" stop-color="#FC7B20"/>
<stop offset="0.6313" stop-color="#FC801D"/>
<stop offset="0.9964" stop-color="#FFDE17"/>
</linearGradient>
<linearGradient id="paint12_linear" x1="28.1225" y1="32.9367" x2="39.5042" y2="68.0303" gradientUnits="userSpaceOnUse">
<stop offset="0.2209" stop-color="#EE2A7B"/>
<stop offset="0.6985" stop-color="#F7941D"/>
</linearGradient>
<linearGradient id="paint13_linear" x1="29.33" y1="53.2656" x2="33.669" y2="66.6439" gradientUnits="userSpaceOnUse">
<stop offset="0.092793" stop-color="#F15A29"/>
<stop offset="0.3888" stop-color="#FC801D"/>
<stop offset="1" stop-color="#FEC519"/>
</linearGradient>
<linearGradient id="paint14_linear" x1="27.096" y1="59.926" x2="52.2102" y2="54.8689" gradientUnits="userSpaceOnUse">
<stop offset="0.092793" stop-color="#F15A29"/>
<stop offset="0.3888" stop-color="#FC801D"/>
<stop offset="0.8214" stop-color="#FEC519"/>
<stop offset="0.9894" stop-color="#FCF84A"/>
</linearGradient>
<linearGradient id="paint15_linear" x1="18.5709" y1="56.2412" x2="41.4956" y2="17.1344" gradientUnits="userSpaceOnUse">
<stop offset="0.0417113" stop-color="#7D11EF"/>
<stop offset="0.1162" stop-color="#A019CB"/>
<stop offset="0.2019" stop-color="#C220A8"/>
<stop offset="0.283" stop-color="#DA268F"/>
<stop offset="0.3569" stop-color="#E92980"/>
<stop offset="0.417" stop-color="#EE2A7B"/>
</linearGradient>
<linearGradient id="paint16_linear" x1="32.4618" y1="35.9492" x2="39.5045" y2="57.6644" gradientUnits="userSpaceOnUse">
<stop  offset="0" stop-color="#F7941D" stop-opacity="0"/>
<stop offset="0.5473" stop-color="#FB851D" stop-opacity="0.5473"/>
<stop offset="1" stop-color="#FC801D"/>
</linearGradient>
<linearGradient id="paint17_linear" x1="-8.2731" y1="13.0241" x2="7.855" y2="42.4354" gradientUnits="userSpaceOnUse">
<stop offset="0.1915" stop-color="#7D11EF"/>
<stop offset="0.2818" stop-color="#A019CB"/>
<stop offset="0.3858" stop-color="#C220A8"/>
<stop offset="0.4842" stop-color="#DA268F"/>
<stop offset="0.5738" stop-color="#E92980"/>
<stop offset="0.6467" stop-color="#EE2A7B"/>
</linearGradient>
<linearGradient id="paint18_linear" x1="9.2202" y1="4.32558" x2="20.2799" y2="24.494" gradientUnits="userSpaceOnUse">
<stop offset="0.1915" stop-color="#7D11EF"/>
<stop offset="0.2818" stop-color="#A019CB"/>
<stop offset="0.3858" stop-color="#C220A8"/>
<stop offset="0.4842" stop-color="#DA268F"/>
<stop offset="0.5738" stop-color="#E92980"/>
<stop offset="0.6467" stop-color="#EE2A7B"/>
<stop offset="1" stop-color="#F26522"/>
</linearGradient>
<linearGradient id="paint19_linear" x1="24.0278" y1="-6.70582" x2="9.60105" y2="33.7754" gradientUnits="userSpaceOnUse">
<stop offset="0.1915" stop-color="#7D11EF"/>
<stop offset="0.2818" stop-color="#A019CB"/>
<stop offset="0.3858" stop-color="#C220A8"/>
<stop offset="0.4842" stop-color="#DA268F"/>
<stop offset="0.5738" stop-color="#E92980"/>
<stop offset="0.6467" stop-color="#EE2A7B"/>
<stop offset="1" stop-color="#F26522"/>
</linearGradient>
<linearGradient id="paint20_linear" x1="38.7655" y1="37.0001" x2="8.4182" y2="14.8589" gradientUnits="userSpaceOnUse">
<stop offset="0.0417113" stop-color="#FFDE17"/>
<stop offset="0.0429608" stop-color="#FFDD18"/>
<stop offset="0.1145" stop-color="#FAA736"/>
<stop offset="0.1843" stop-color="#F67A4E"/>
<stop offset="0.2509" stop-color="#F25762"/>
<stop offset="0.3136" stop-color="#F03E70"/>
<stop offset="0.3706" stop-color="#EE2F78"/>
<stop offset="0.417" stop-color="#EE2A7B"/>
</linearGradient>
<linearGradient id="paint21_linear" x1="5.91095" y1="11.6582" x2="51.6559" y2="47.3259" gradientUnits="userSpaceOnUse">
<stop offset="0.0108952" stop-color="#7C0F13"/>
<stop offset="0.0756282" stop-color="#6C0D11"/>
<stop offset="0.2517" stop-color="#45080B"/>
<stop offset="0.4263" stop-color="#270506"/>
<stop offset="0.5969" stop-color="#110203"/>
<stop offset="0.7616" stop-color="#040101"/>
<stop offset="0.9138"/>
</linearGradient>
<linearGradient id="paint22_linear" x1="50.8659" y1="53.6884" x2="27.6937" y2="27.0494" gradientUnits="userSpaceOnUse">
<stop  offset="0" stop-color="#801E02"/>
<stop offset="0.1961" stop-color="#AC410C"/>
<stop offset="0.3865" stop-color="#CF5C13"/>
<stop offset="0.5655" stop-color="#E87019"/>
<stop offset="0.7285" stop-color="#F77C1C"/>
<stop offset="0.8611" stop-color="#FC801D"/>
</linearGradient>
<linearGradient id="paint23_linear" x1="42.8065" y1="59.219" x2="19.7495" y2="31.362" gradientUnits="userSpaceOnUse">
<stop  offset="0" stop-color="#45002D"/>
<stop offset="0.06907" stop-color="#720B42"/>
<stop offset="0.1487" stop-color="#9E1656"/>
<stop offset="0.2255" stop-color="#C11F66"/>
<stop offset="0.2977" stop-color="#DA2572"/>
<stop offset="0.3635" stop-color="#E92979"/>
<stop offset="0.417" stop-color="#EE2A7B"/>
<stop offset="1" stop-color="#F26522"/>
</linearGradient>
<linearGradient id="paint24_linear" x1="18.4548" y1="16.7698" x2="32.6852" y2="27.2747" gradientUnits="userSpaceOnUse">
<stop offset="0.3737" stop-color="#FEB51A"/>
<stop offset="0.4306" stop-color="#FEAD1A"/>
<stop offset="0.6448" stop-color="#FD941C"/>
<stop offset="0.8406" stop-color="#FC851D"/>
<stop offset="1" stop-color="#FC801D"/>
</linearGradient>
<linearGradient id="paint25_linear" x1="21.8759" y1="9.0521" x2="39.7121" y2="49.4807" gradientUnits="userSpaceOnUse">
<stop  offset="0" stop-color="#FE2857"/>
<stop offset="0.0940498" stop-color="#E7254E"/>
<stop offset="0.3015" stop-color="#BB1E3D"/>
<stop offset="0.5015" stop-color="#98192F"/>
<stop offset="0.6896" stop-color="#7F1525"/>
<stop offset="0.8608" stop-color="#70131F"/>
<stop offset="1" stop-color="#6B121D"/>
</linearGradient>
<linearGradient id="paint26_linear" x1="50.8377" y1="43.7495" x2="14.6321" y2="55.4066" gradientUnits="userSpaceOnUse">
<stop offset="0.0794007" stop-color="#70193B"/>
<stop offset="0.23" stop-color="#962D38"/>
<stop offset="0.4689" stop-color="#CE4B33"/>
<stop offset="0.6473" stop-color="#F05D30"/>
<stop offset="0.7435" stop-color="#FD642F"/>
</linearGradient>
<linearGradient id="paint27_linear" x1="61.4138" y1="43.4542" x2="23.6996" y2="0.939997" gradientUnits="userSpaceOnUse">
<stop  offset="0" stop-color="#6B57FF"/>
<stop offset="1" stop-color="#FE2857"/>
</linearGradient>
<linearGradient id="paint28_linear" x1="11.7247" y1="11.0534" x2="17.9449" y2="22.3968" gradientUnits="userSpaceOnUse">
<stop offset="0.1915" stop-color="#7D11EF"/>
<stop offset="0.2818" stop-color="#A019CB"/>
<stop offset="0.3858" stop-color="#C220A8"/>
<stop offset="0.4842" stop-color="#DA268F"/>
<stop offset="0.5738" stop-color="#E92980"/>
<stop offset="0.6467" stop-color="#EE2A7B"/>
<stop offset="1" stop-color="#F26522"/>
</linearGradient>
<linearGradient id="paint29_linear" x1="19.5098" y1="5.078" x2="11.5867" y2="27.31" gradientUnits="userSpaceOnUse">
<stop offset="0.1915" stop-color="#7D11EF"/>
<stop offset="0.2818" stop-color="#A019CB"/>
<stop offset="0.3858" stop-color="#C220A8"/>
<stop offset="0.4842" stop-color="#DA268F"/>
<stop offset="0.5738" stop-color="#E92980"/>
<stop offset="0.6467" stop-color="#EE2A7B"/>
<stop offset="1" stop-color="#F26522"/>
</linearGradient>
</defs>
</svg>
